<svg width="50.000000" height="50.000000" viewBox="0 0 50 50" fill="none" xmlns="http://www.w3.org/2000/svg" xmlns:xlink="http://www.w3.org/1999/xlink">
	<desc>
			Created with Pixso.
	</desc>
	<defs>
		<clipPath id="clip2_210">
			<rect id="Arrow" rx="25.000000" width="50.000000" height="50.000000" transform="matrix(0 -1 -1 0 50 50)" fill="white" fill-opacity="0"/>
		</clipPath>
	</defs>
	<rect id="Arrow" rx="25.000000" width="50.000000" height="50.000000" transform="matrix(0 -1 -1 0 50 50)" fill="#D3D2D2" fill-opacity="0.787356"/>
	<g clip-path="url(#clip2_210)">
		<path id="path" d="M31.75 13.03L31.78 13.03C32.07 12.73 32.07 12.26 31.78 11.96C31.48 11.67 31.01 11.67 30.71 11.96L30.71 11.99L31.75 13.03ZM30.71 38L30.71 38.03C31.01 38.32 31.48 38.32 31.78 38.03C32.07 37.73 32.07 37.26 31.78 36.96L31.75 36.96L30.71 38Z" fill="#000000" fill-opacity="0" fill-rule="nonzero"/>
		<path id="path" d="M31.25 12.5L18.75 25L31.25 37.5" stroke="#000000" stroke-opacity="1.000000" stroke-width="1.500000" stroke-linejoin="round" stroke-linecap="round"/>
	</g>
</svg>
