<svg width="50.000000" height="50.000000" viewBox="0 0 50 50" fill="none" xmlns="http://www.w3.org/2000/svg" xmlns:xlink="http://www.w3.org/1999/xlink">
	<desc>
			Created with Pixso.
	</desc>
	<defs>
		<clipPath id="clip2_221">
			<rect id="Arrow" rx="25.000000" width="50.000000" height="50.000000" transform="translate(0.000000 50.000000) rotate(-90.000000)" fill="white" fill-opacity="0"/>
		</clipPath>
	</defs>
	<rect id="Arrow" rx="25.000000" width="50.000000" height="50.000000" transform="translate(0.000000 50.000000) rotate(-90.000000)" fill="#D3D2D2" fill-opacity="0.787356"/>
	<g clip-path="url(#clip2_221)">
		<path id="path" d="M18.24 13.03L18.21 13.03C17.92 12.73 17.92 12.26 18.21 11.96C18.51 11.67 18.98 11.67 19.28 11.96L19.28 11.99L18.24 13.03ZM19.28 38L19.28 38.03C18.98 38.32 18.51 38.32 18.21 38.03C17.92 37.73 17.92 37.26 18.21 36.96L18.24 36.96L19.28 38Z" fill="#000000" fill-opacity="0" fill-rule="nonzero"/>
		<path id="path" d="M18.75 12.5L31.25 25L18.75 37.5" stroke="#000000" stroke-opacity="1.000000" stroke-width="1.500000" stroke-linejoin="round" stroke-linecap="round"/>
	</g>
</svg>
