<svg width="33.500000" height="25.500000" viewBox="0 0 33.5 25.5" fill="none" xmlns="http://www.w3.org/2000/svg" xmlns:xlink="http://www.w3.org/1999/xlink">
	<desc>
			Created with Pixso.
	</desc>
	<defs/>
	<path id="Union" d="M0.75 0L32.75 0C33.1699 0 33.5 0.330017 33.5 0.75C33.5 1.16998 33.1699 1.5 32.75 1.5L0.75 1.5C0.330078 1.5 0 1.17001 0 0.75C0 0.329987 0.330078 0 0.75 0ZM32.75 12L0.75 12C0.330078 12 0 12.33 0 12.75C0 13.17 0.330078 13.5 0.75 13.5L32.75 13.5C33.1699 13.5 33.5 13.17 33.5 12.75C33.5 12.33 33.1699 12 32.75 12ZM0.75 24L32.75 24C33.1699 24 33.5 24.33 33.5 24.75C33.5 25.17 33.1699 25.5 32.75 25.5L0.75 25.5C0.330078 25.5 0 25.17 0 24.75C0 24.33 0.330078 24 0.75 24Z" clip-rule="evenodd" fill="#5CA15D" fill-opacity="1.000000" fill-rule="evenodd"/>
</svg>
