<svg width="95.000000" height="97.000000" viewBox="0 0 95 97" fill="none" xmlns="http://www.w3.org/2000/svg" xmlns:xlink="http://www.w3.org/1999/xlink">
	<desc>
			Created with Pixso.
	</desc>
	<defs>
		<clipPath id="clip22_73">
			<rect id="Logo 3.svg" width="95.000000" height="97.000000" fill="white" fill-opacity="0"/>
		</clipPath>
	</defs>
	<g clip-path="url(#clip22_73)">
		<rect id="Logo 3" x="-2.999878" width="99.999809" height="103.009796" fill="#FFFFFF" fill-opacity="0"/>
		<path id="RE:USE" d="M9 89.85L13.55 96.21L15.13 96.21L10.37 89.55C11.61 89.19 12.6 88.6 13.34 87.79C13.46 87.66 13.57 87.53 13.68 87.39C13.77 87.26 13.86 87.13 13.94 86.99C14.54 86.04 14.83 84.91 14.83 83.6C14.83 82.25 14.53 81.1 13.91 80.14C13.61 79.68 13.23 79.26 12.78 78.88C11.42 77.75 9.55 77.18 7.15 77.18L0.32 77.18L0.32 96.21L1.71 96.21L1.71 89.98L7.15 89.98C7.71 89.98 8.33 89.94 9 89.85ZM33.08 96.21L33.08 94.96L21.31 94.96L21.31 87.16L31.47 87.16L31.47 85.94L21.31 85.94L21.31 78.43L32.67 78.43L32.67 77.18L19.93 77.18L19.93 96.21L33.08 96.21ZM11.81 87.42C10.74 88.32 9.19 88.76 7.15 88.76L1.71 88.76L1.71 78.43L7.15 78.43C9.19 78.43 10.74 78.88 11.81 79.78C12.11 80.03 12.36 80.31 12.58 80.61C13.14 81.41 13.42 82.41 13.42 83.6C13.42 84.79 13.13 85.79 12.57 86.59C12.36 86.89 12.1 87.17 11.81 87.42Z" fill="#5CA15D" fill-opacity="1.000000" fill-rule="evenodd"/>
		<path id="RE:USE" d="M67.16 95.94C68.13 96.21 69.15 96.34 70.19 96.34C71.7 96.34 72.97 96.12 74 95.66C75.04 95.21 75.81 94.61 76.31 93.85C76.54 93.5 76.72 93.14 76.84 92.76C76.99 92.3 77.06 91.82 77.06 91.32C77.06 90.28 76.81 89.45 76.31 88.81C76.27 88.75 76.22 88.7 76.17 88.65C75.91 88.35 75.63 88.09 75.31 87.86C74.93 87.57 74.5 87.34 74.03 87.16C73.2 86.83 72.08 86.49 70.69 86.15C69.43 85.84 68.44 85.55 67.71 85.29C67.01 85.02 66.42 84.64 65.94 84.16C65.92 84.15 65.91 84.13 65.89 84.12C65.81 84.03 65.73 83.94 65.66 83.84C65.33 83.37 65.16 82.78 65.16 82.08C65.16 81.54 65.26 81.05 65.47 80.61C65.7 80.13 66.04 79.7 66.52 79.33C67.43 78.62 68.76 78.27 70.53 78.27C71.41 78.27 72.32 78.41 73.23 78.68C74.01 78.91 74.73 79.23 75.39 79.63C75.51 79.71 75.63 79.79 75.75 79.87L76.27 78.76C75.53 78.24 74.65 77.82 73.62 77.51C73 77.32 72.36 77.18 71.72 77.11C71.33 77.07 70.93 77.04 70.53 77.04C69.02 77.04 67.76 77.27 66.75 77.73C65.75 78.18 65 78.79 64.51 79.56C64.28 79.91 64.11 80.27 63.99 80.65C63.85 81.11 63.77 81.59 63.77 82.1C63.77 83.17 64.03 84.04 64.56 84.71C64.59 84.76 64.62 84.8 64.66 84.84C64.94 85.16 65.24 85.44 65.58 85.68C65.95 85.95 66.36 86.17 66.8 86.34C67.65 86.67 68.77 87 70.17 87.35C71.41 87.64 72.39 87.92 73.11 88.19C73.79 88.45 74.37 88.81 74.85 89.27C74.88 89.3 74.91 89.33 74.94 89.36C75.02 89.45 75.1 89.55 75.18 89.65C75.51 90.11 75.68 90.7 75.68 91.4C75.68 91.89 75.58 92.35 75.39 92.76C75.17 93.27 74.8 93.71 74.28 94.09C73.36 94.78 71.99 95.12 70.17 95.12C69.31 95.12 68.48 95.02 67.68 94.81C67.31 94.71 66.95 94.59 66.59 94.45C65.46 94.01 64.55 93.44 63.88 92.73L63.25 93.76C63.96 94.52 64.95 95.14 66.21 95.62C66.52 95.74 66.84 95.85 67.16 95.94ZM46.12 94.88C47.38 95.85 49.03 96.34 51.05 96.34C53.07 96.34 54.72 95.85 55.99 94.88C56.24 94.69 56.47 94.48 56.69 94.25C58.03 92.86 58.71 90.82 58.71 88.13L58.71 77.18L57.31 77.18L57.31 88.08C57.31 90.42 56.78 92.17 55.71 93.33C55.55 93.5 55.38 93.66 55.2 93.81C54.17 94.65 52.8 95.07 51.08 95.07C49.33 95.07 47.93 94.64 46.89 93.78C46.73 93.64 46.57 93.49 46.42 93.33C45.35 92.17 44.82 90.42 44.82 88.08L44.82 77.18L43.42 77.18L43.42 88.13C43.42 90.82 44.09 92.86 45.43 94.25C45.64 94.48 45.87 94.69 46.12 94.88ZM94.93 96.21L94.93 94.96L83.17 94.96L83.17 87.16L93.32 87.16L93.32 85.94L83.17 85.94L83.17 78.43L94.52 78.43L94.52 77.18L81.77 77.18L81.77 96.21L94.93 96.21ZM37.15 84.15C37.28 84.19 37.41 84.22 37.55 84.22C37.68 84.22 37.8 84.2 37.91 84.16C38.07 84.1 38.21 84.01 38.34 83.88C38.45 83.77 38.54 83.65 38.59 83.52C38.66 83.38 38.69 83.22 38.69 83.05C38.69 82.88 38.66 82.72 38.59 82.58C38.53 82.45 38.45 82.34 38.34 82.24C38.22 82.12 38.08 82.03 37.93 81.97C37.81 81.93 37.68 81.91 37.55 81.91C37.4 81.91 37.27 81.93 37.14 81.98C36.99 82.04 36.86 82.12 36.74 82.24C36.64 82.34 36.56 82.45 36.51 82.56C36.44 82.71 36.4 82.87 36.4 83.05C36.4 83.23 36.44 83.39 36.51 83.54C36.56 83.66 36.64 83.78 36.74 83.88C36.87 84 37 84.09 37.15 84.15ZM37.15 96.25C37.28 96.29 37.41 96.31 37.55 96.31C37.68 96.31 37.8 96.29 37.91 96.26C38.07 96.2 38.21 96.11 38.34 95.98C38.45 95.87 38.54 95.75 38.59 95.62C38.66 95.48 38.69 95.32 38.69 95.15C38.69 94.97 38.66 94.82 38.59 94.68C38.53 94.55 38.45 94.44 38.34 94.34C38.22 94.21 38.08 94.12 37.93 94.07C37.81 94.03 37.68 94 37.55 94C37.4 94 37.27 94.03 37.14 94.08C36.99 94.13 36.86 94.22 36.74 94.34C36.64 94.43 36.56 94.54 36.51 94.66C36.44 94.81 36.4 94.97 36.4 95.15C36.4 95.33 36.44 95.49 36.51 95.64C36.56 95.76 36.64 95.87 36.74 95.98C36.87 96.1 37 96.19 37.15 96.25Z" fill="#6DC180" fill-opacity="1.000000" fill-rule="evenodd"/>
		<path id="path" d="M41.92 51.5L22.05 51.5C21.55 51.5 21.29 51.19 21.19 51C21.08 50.82 20.94 50.45 21.18 50.01L24.62 44L19.45 41.05L16 47.06C14.76 49.24 14.77 51.83 16.03 53.99C17.29 56.15 19.54 57.45 22.05 57.45L41.92 57.45L41.92 63.51L50.97 54.47L41.92 45.43L41.92 51.5Z" fill="#6DC180" fill-opacity="1.000000" fill-rule="nonzero"/>
		<path id="path" d="M77.97 47.01L68.03 29.83L73.29 26.8L60.92 23.49L57.61 35.83L62.87 32.81L72.8 49.98C73.05 50.41 72.91 50.79 72.8 50.97C72.7 51.16 72.44 51.47 71.94 51.47L65.01 51.5L65.04 57.45L71.97 57.41C74.48 57.41 76.72 56.1 77.97 53.93C79.22 51.76 79.22 49.17 77.97 47.01Z" fill="#6DC180" fill-opacity="1.000000" fill-rule="nonzero"/>
		<path id="path" d="M46.73 0C44.22 0 41.96 1.29 40.7 3.46L30.77 20.64L25.51 17.61L28.82 29.95L41.19 26.64L35.93 23.62L45.87 6.44C46.11 6.01 46.51 5.94 46.72 5.94C46.94 5.94 47.34 6 47.59 6.43L51.08 12.41L56.23 9.41L52.74 3.43C51.47 1.28 49.23 0 46.73 0Z" fill="#6DC180" fill-opacity="1.000000" fill-rule="nonzero"/>
		<path id="polygon" d="M47 58.44L50.97 54.47L47 50.51L47 58.44Z" fill="#5CA15D" fill-opacity="1.000000" fill-rule="nonzero"/>
		<path id="path" d="M46.99 0L46.99 5.98C47.19 6.03 47.42 6.15 47.59 6.43L51.08 12.41L56.23 9.41L52.74 3.43C51.52 1.36 49.39 0.09 46.99 0Z" fill="#5CA15D" fill-opacity="1.000000" fill-rule="nonzero"/>
		<path id="path" d="M77.97 47.01L68.03 29.83L73.29 26.8L60.92 23.49L57.61 35.83L62.87 32.81L72.8 49.98C73.05 50.41 72.91 50.79 72.8 50.97C72.7 51.16 72.44 51.47 71.94 51.47L65.01 51.5L65.04 57.45L71.97 57.41C74.48 57.41 76.72 56.1 77.97 53.93C79.22 51.76 79.22 49.17 77.97 47.01Z" fill="#5CA15D" fill-opacity="1.000000" fill-rule="nonzero"/>
	</g>
</svg>
