<svg width="143.000000" height="50.000000" viewBox="0 0 143 50" fill="none" xmlns="http://www.w3.org/2000/svg" xmlns:xlink="http://www.w3.org/1999/xlink">
	<desc>
			Created with Pixso.
	</desc>
	<defs>
		<clipPath id="clip2_92">
			<rect id="Header Logo" width="143.000000" height="50.000004" fill="white" fill-opacity="0"/>
		</clipPath>
	</defs>
	<g clip-path="url(#clip2_92)">
		<rect id="Logo 2" width="143.000000" height="50.000000" fill="#FFFFFF" fill-opacity="0"/>
		<path id="RE:USE" d="M65.58 27.88L69.58 33.5L70.98 33.5L66.78 27.61C67.87 27.29 68.75 26.78 69.41 26.06C69.51 25.94 69.6 25.83 69.69 25.71C69.78 25.59 69.85 25.48 69.93 25.36C70.45 24.52 70.72 23.52 70.72 22.36C70.72 21.16 70.44 20.15 69.9 19.31C69.64 18.89 69.31 18.52 68.91 18.2C67.71 17.2 66.05 16.7 63.95 16.7L57.92 16.7L57.92 33.5L59.15 33.5L59.15 28L63.95 28C64.44 28 64.98 27.96 65.58 27.88ZM86.79 33.5L86.79 32.39L76.42 32.39L76.42 25.5L85.38 25.5L85.38 24.42L76.42 24.42L76.42 17.79L86.43 17.79L86.43 16.7L75.19 16.7L75.19 33.5L86.79 33.5ZM68.05 25.73C67.11 26.52 65.74 26.92 63.95 26.92L59.15 26.92L59.15 17.79L63.95 17.79C65.74 17.79 67.11 18.19 68.05 18.99C68.31 19.2 68.53 19.45 68.73 19.73C69.22 20.43 69.47 21.3 69.47 22.36C69.47 23.41 69.22 24.29 68.72 25C68.53 25.26 68.31 25.51 68.05 25.73Z" fill="#5CA15D" fill-opacity="1.000000" fill-rule="evenodd"/>
		<path id="RE:USE" d="M116.83 33.25C117.69 33.49 118.58 33.61 119.51 33.61C120.83 33.61 121.95 33.41 122.86 33C123.77 32.61 124.45 32.08 124.9 31.41C125.1 31.1 125.25 30.78 125.36 30.45C125.49 30.05 125.56 29.62 125.56 29.18C125.56 28.26 125.33 27.52 124.89 26.96C124.85 26.9 124.81 26.86 124.77 26.82C124.54 26.56 124.29 26.32 124.02 26.12C123.67 25.86 123.29 25.66 122.89 25.5C122.15 25.21 121.16 24.91 119.94 24.61C118.83 24.34 117.96 24.09 117.32 23.85C116.7 23.61 116.17 23.28 115.75 22.86C115.67 22.78 115.57 22.65 115.51 22.57C115.21 22.15 115.07 21.63 115.07 21.01C115.07 20.54 115.16 20.11 115.34 19.71C115.54 19.29 115.85 18.91 116.27 18.59C117.07 17.96 118.24 17.66 119.8 17.66C120.58 17.66 121.37 17.78 122.18 18.02C122.86 18.21 123.49 18.5 124.08 18.86C124.18 18.92 124.29 18.99 124.4 19.07L124.86 18.08C124.2 17.62 123.43 17.25 122.53 16.98C121.97 16.81 121.41 16.69 120.85 16.62C120.5 16.59 120.15 16.57 119.8 16.57C118.47 16.57 117.36 16.77 116.47 17.18C115.58 17.57 114.92 18.11 114.49 18.79C114.29 19.09 114.14 19.42 114.04 19.76C113.91 20.16 113.85 20.59 113.85 21.04C113.85 21.98 114.08 22.75 114.54 23.34C114.56 23.38 114.59 23.41 114.62 23.45C114.86 23.73 115.14 23.98 115.44 24.2C115.76 24.43 116.12 24.62 116.52 24.78C117.26 25.07 118.25 25.37 119.48 25.67C120.57 25.92 121.43 26.17 122.07 26.42C122.67 26.64 123.19 26.95 123.61 27.37C123.69 27.45 123.83 27.61 123.89 27.7C124.18 28.11 124.33 28.63 124.33 29.25C124.33 29.68 124.25 30.08 124.09 30.45C123.89 30.89 123.56 31.29 123.11 31.63C122.29 32.23 121.08 32.53 119.48 32.53C118.72 32.53 117.99 32.43 117.28 32.25C116.96 32.17 116.64 32.07 116.33 31.95C115.33 31.55 114.53 31.04 113.94 30.42L113.39 31.33C114.01 32 114.88 32.55 115.99 32.98C116.26 33.08 116.54 33.17 116.83 33.25ZM98.29 32.32C99.4 33.18 100.85 33.61 102.64 33.61C104.41 33.61 105.86 33.18 106.98 32.32C107.2 32.15 107.4 31.97 107.6 31.77C108.78 30.53 109.38 28.73 109.38 26.36L109.38 16.7L108.15 16.7L108.15 26.32C108.15 28.38 107.68 29.93 106.74 30.95C106.6 31.1 106.45 31.24 106.29 31.38C105.38 32.12 104.17 32.49 102.66 32.49C101.11 32.49 99.88 32.11 98.97 31.35C98.82 31.23 98.68 31.09 98.54 30.95C97.61 29.93 97.14 28.38 97.14 26.32L97.14 16.7L95.91 16.7L95.91 26.36C95.91 28.73 96.5 30.53 97.67 31.77C97.86 31.97 98.06 32.15 98.29 32.32ZM141.3 33.5L141.3 32.39L130.92 32.39L130.92 25.5L139.88 25.5L139.88 24.42L130.92 24.42L130.92 17.79L140.94 17.79L140.94 16.7L129.71 16.7L129.71 33.5L141.3 33.5ZM90.39 22.85C90.49 22.89 90.61 22.91 90.73 22.91C90.85 22.91 90.96 22.89 91.05 22.85C91.19 22.8 91.31 22.72 91.43 22.61C91.53 22.51 91.6 22.41 91.66 22.3C91.71 22.16 91.74 22.02 91.74 21.88C91.74 21.72 91.71 21.58 91.65 21.46C91.6 21.34 91.53 21.24 91.43 21.16C91.32 21.05 91.2 20.97 91.06 20.92C90.96 20.88 90.85 20.87 90.73 20.87C90.6 20.87 90.48 20.89 90.38 20.93C90.24 20.97 90.12 21.05 90.02 21.16C89.93 21.24 89.86 21.34 89.81 21.45C89.76 21.57 89.73 21.72 89.73 21.88C89.73 22.03 89.75 22.17 89.8 22.31C89.86 22.41 89.93 22.51 90.02 22.61C90.13 22.71 90.25 22.79 90.39 22.85ZM90.39 33.53C90.49 33.57 90.61 33.59 90.73 33.59C90.85 33.59 90.96 33.57 91.05 33.53C91.19 33.48 91.31 33.4 91.43 33.29C91.53 33.19 91.6 33.09 91.66 32.98C91.71 32.85 91.74 32.71 91.74 32.56C91.74 32.4 91.71 32.26 91.65 32.14C91.6 32.03 91.53 31.93 91.43 31.84C91.32 31.73 91.2 31.65 91.06 31.61C90.96 31.57 90.85 31.55 90.73 31.55C90.6 31.55 90.48 31.57 90.38 31.61C90.24 31.66 90.12 31.74 90.02 31.84C89.93 31.92 89.86 32.02 89.81 32.13C89.76 32.25 89.73 32.4 89.73 32.56C89.73 32.71 89.75 32.85 89.8 32.99C89.86 33.09 89.93 33.19 90.02 33.29C90.13 33.39 90.25 33.47 90.39 33.53Z" fill="#6DC180" fill-opacity="1.000000" fill-rule="evenodd"/>
		<path id="path" d="M21.02 40.54L5.45 40.54C5.06 40.54 4.85 40.3 4.78 40.15C4.69 40 4.58 39.71 4.78 39.37L7.47 34.64L3.42 32.32L0.72 37.05C-0.25 38.75 -0.25 40.8 0.73 42.5C1.73 44.21 3.48 45.22 5.45 45.22L21.02 45.22L21.02 50L28.11 42.88L21.02 35.77L21.02 40.54Z" fill="#6DC180" fill-opacity="1.000000" fill-rule="nonzero"/>
		<path id="path" d="M49.26 37L41.47 23.48L45.59 21.1L35.91 18.5L33.31 28.21L37.43 25.82L45.21 39.34C45.41 39.68 45.3 39.98 45.21 40.12C45.13 40.27 44.93 40.5 44.54 40.52L39.11 40.54L39.13 45.22L44.56 45.2C46.53 45.19 48.28 44.17 49.26 42.46C50.24 40.75 50.24 38.71 49.26 37Z" fill="#6DC180" fill-opacity="1.000000" fill-rule="nonzero"/>
		<path id="path" d="M24.79 0C22.83 0 21.05 1.02 20.06 2.72L12.28 16.25L8.15 13.86L10.75 23.58L20.45 20.98L16.33 18.59L24.11 5.07C24.31 4.72 24.62 4.67 24.78 4.67C24.95 4.67 25.25 4.72 25.46 5.07L28.2 9.77L32.23 7.4L29.49 2.71C28.5 1.01 26.75 0 24.79 0Z" fill="#6DC180" fill-opacity="1.000000" fill-rule="nonzero"/>
		<path id="polygon" d="M24.99 46.01L28.11 42.88L24.99 39.75L24.99 46.01Z" fill="#5CA15D" fill-opacity="1.000000" fill-rule="nonzero"/>
		<path id="path" d="M24.99 0L24.99 4.71C25.15 4.75 25.33 4.84 25.46 5.07L28.2 9.77L32.23 7.4L29.49 2.71C28.54 1.07 26.87 0.07 24.99 0Z" fill="#5CA15D" fill-opacity="1.000000" fill-rule="nonzero"/>
		<path id="path" d="M49.26 37L41.47 23.48L45.59 21.1L35.91 18.5L33.31 28.21L37.43 25.82L45.21 39.34C45.41 39.68 45.3 39.98 45.21 40.12C45.13 40.27 44.93 40.5 44.54 40.52L39.11 40.54L39.13 45.22L44.56 45.2C46.53 45.19 48.28 44.17 49.26 42.46C50.24 40.75 50.24 38.71 49.26 37Z" fill="#5CA15D" fill-opacity="1.000000" fill-rule="nonzero"/>
	</g>
</svg>
