<svg width="50.000000" height="50.000000" viewBox="0 0 50 50" fill="none" xmlns="http://www.w3.org/2000/svg" xmlns:xlink="http://www.w3.org/1999/xlink">
	<desc>
			Created with Pixso.
	</desc>
	<defs>
		<clipPath id="clip2_1201">
			<rect id="Icon" width="50.000000" height="50.000000" fill="white" fill-opacity="0"/>
		</clipPath>
	</defs>
	<g clip-path="url(#clip2_1201)">
		<path id="path" d="M21.02 40.54L5.45 40.54C5.06 40.54 4.86 40.3 4.78 40.15C4.69 40 4.58 39.71 4.78 39.37L7.47 34.64L3.41 32.32L0.72 37.05C-0.25 38.76 -0.25 40.8 0.74 42.5C1.72 44.2 3.48 45.22 5.45 45.22L21.02 45.22L21.02 49.99L28.11 42.88L21.02 35.77L21.02 40.54Z" fill="#6DC180" fill-opacity="1.000000" fill-rule="nonzero"/>
		<path id="path" d="M49.26 37L41.47 23.48L45.59 21.1L35.9 18.49L33.31 28.21L37.43 25.82L45.21 39.34C45.4 39.68 45.29 39.98 45.21 40.12C45.13 40.27 44.93 40.51 44.54 40.51L39.11 40.54L39.13 45.22L44.56 45.2C46.52 45.19 48.28 44.16 49.26 42.46C50.24 40.75 50.24 38.71 49.26 37Z" fill="#6DC180" fill-opacity="1.000000" fill-rule="nonzero"/>
		<path id="path" d="M24.79 0C22.82 0 21.05 1.02 20.07 2.73L12.28 16.25L8.16 13.86L10.76 23.57L20.45 20.97L16.33 18.59L24.11 5.07C24.31 4.73 24.62 4.68 24.78 4.68C24.95 4.68 25.26 4.73 25.46 5.06L28.2 9.77L32.23 7.41L29.49 2.7C28.5 1 26.75 0 24.79 0Z" fill="#6DC180" fill-opacity="1.000000" fill-rule="nonzero"/>
		<path id="polygon" d="M24.99 46.01L28.11 42.88L24.99 39.76L24.99 46.01Z" fill="#5CA15D" fill-opacity="1.000000" fill-rule="nonzero"/>
		<path id="path" d="M24.99 0L24.99 4.71C25.15 4.75 25.33 4.84 25.46 5.06L28.2 9.77L32.23 7.41L29.49 2.7C28.54 1.07 26.87 0.07 24.99 0Z" fill="#5CA15D" fill-opacity="1.000000" fill-rule="nonzero"/>
		<path id="path" d="M49.26 37L41.47 23.48L45.59 21.1L35.9 18.49L33.31 28.21L37.43 25.82L45.21 39.34C45.4 39.68 45.29 39.98 45.21 40.12C45.13 40.27 44.93 40.51 44.54 40.51L39.11 40.54L39.13 45.22L44.56 45.2C46.52 45.19 48.28 44.16 49.26 42.46C50.24 40.75 50.24 38.71 49.26 37Z" fill="#5CA15D" fill-opacity="1.000000" fill-rule="nonzero"/>
	</g>
</svg>
