<svg width="21.500000" height="21.500000" viewBox="0 0 21.5 21.5" fill="none" xmlns="http://www.w3.org/2000/svg" xmlns:xlink="http://www.w3.org/1999/xlink">
	<desc>
			Created with Pixso.
	</desc>
	<defs/>
	<path id="path" d="M12.77 0.95C10.04 1.66 8.02 4.15 8.02 7.11C8.02 10.62 10.87 13.47 14.38 13.47C17.34 13.47 19.83 11.45 20.54 8.72C20.67 9.37 20.75 10.05 20.75 10.75C20.75 16.27 16.27 20.75 10.75 20.75C5.22 20.75 0.75 16.27 0.75 10.75C0.75 5.22 5.22 0.75 10.75 0.75C11.44 0.75 12.12 0.82 12.77 0.95Z" fill="#000000" fill-opacity="0" fill-rule="nonzero"/>
	<path id="path" d="M8.02 7.11C8.02 10.62 10.87 13.47 14.38 13.47C17.34 13.47 19.83 11.45 20.54 8.72C20.67 9.37 20.75 10.05 20.75 10.75C20.75 16.27 16.27 20.75 10.75 20.75C5.22 20.75 0.75 16.27 0.75 10.75C0.75 5.22 5.22 0.75 10.75 0.75C11.44 0.75 12.12 0.82 12.77 0.95C10.04 1.66 8.02 4.15 8.02 7.11Z" stroke="#36B654" stroke-opacity="1.000000" stroke-width="1.500000" stroke-linejoin="round"/>
</svg>
