<svg width="24.000000" height="24.000000" viewBox="0 0 24 24" fill="none" xmlns="http://www.w3.org/2000/svg" xmlns:xlink="http://www.w3.org/1999/xlink">
	<desc>
			Created with Pixso.
	</desc>
	<defs>
		<clipPath id="clip2_148">
			<rect id="My" width="24.000000" height="24.000000" fill="white" fill-opacity="0"/>
		</clipPath>
	</defs>
	<g clip-path="url(#clip2_148)">
		<path id="path" d="M12 22C17.52 22 22 17.52 22 12C22 6.47 17.52 2 12 2C6.47 2 2 6.47 2 12C2 17.52 6.47 22 12 22Z" fill="#000000" fill-opacity="0" fill-rule="evenodd"/>
		<path id="path" d="M22 12C22 6.47 17.52 2 12 2C6.47 2 2 6.47 2 12C2 17.52 6.47 22 12 22C17.52 22 22 17.52 22 12Z" stroke="#5CA15D" stroke-opacity="1.000000" stroke-width="1.000000" stroke-linejoin="round"/>
		<path id="path" d="M12 11.5C13.38 11.5 14.5 10.38 14.5 9C14.5 7.61 13.38 6.5 12 6.5C10.61 6.5 9.5 7.61 9.5 9C9.5 10.38 10.61 11.5 12 11.5Z" fill="#000000" fill-opacity="0" fill-rule="nonzero"/>
		<path id="path" d="M14.5 9C14.5 7.61 13.38 6.5 12 6.5C10.61 6.5 9.5 7.61 9.5 9C9.5 10.38 10.61 11.5 12 11.5C13.38 11.5 14.5 10.38 14.5 9Z" stroke="#5CA15D" stroke-opacity="1.000000" stroke-width="1.000000" stroke-linejoin="round"/>
		<path id="path" d="M5.49 19.17L5.51 19.19C5.49 19.47 5.25 19.68 4.97 19.66C4.69 19.64 4.49 19.41 4.51 19.13L4.53 19.11L5.49 19.17ZM19.46 19.1L19.48 19.12C19.5 19.4 19.3 19.63 19.02 19.65C18.74 19.67 18.5 19.46 18.48 19.18L18.5 19.16L19.46 19.1Z" fill="#000000" fill-opacity="0" fill-rule="nonzero"/>
		<path id="path" d="M5.01 19.16C5.18 16.56 7.35 14.49 10 14.49L14 14.49C16.64 14.49 18.81 16.55 18.98 19.15" stroke="#5CA15D" stroke-opacity="1.000000" stroke-width="1.000000" stroke-linejoin="round" stroke-linecap="round"/>
	</g>
</svg>
