<svg width="40.000000" height="40.000000" viewBox="0 0 40 40" fill="none" xmlns="http://www.w3.org/2000/svg" xmlns:xlink="http://www.w3.org/1999/xlink">
	<desc>
			Created with Pixso.
	</desc>
	<defs>
		<clipPath id="clip17_277">
			<rect id="Плюс" width="40.000000" height="40.000000" fill="white" fill-opacity="0"/>
		</clipPath>
	</defs>
	<g clip-path="url(#clip17_277)">
		<path id="path" d="M20.75 31.64L20.76 31.66C20.76 32.08 20.43 32.41 20.01 32.41C19.59 32.41 19.26 32.08 19.26 31.66L19.29 31.64L20.75 31.64ZM19.32 8.35L19.3 8.33C19.3 7.91 19.63 7.58 20.05 7.58C20.47 7.58 20.8 7.91 20.8 8.33L20.78 8.35L19.32 8.35Z" fill="#000000" fill-opacity="0" fill-rule="nonzero"/>
		<path id="path" d="M20.01 31.66L20.05 8.33" stroke="#5CA15D" stroke-opacity="1.000000" stroke-width="1.500000" stroke-linejoin="round" stroke-linecap="round"/>
		<path id="path" d="M8.35 20.73L8.33 20.75C7.91 20.75 7.58 20.42 7.58 20C7.58 19.58 7.91 19.25 8.33 19.25L8.35 19.27L8.35 20.73ZM31.64 19.27L31.66 19.25C32.08 19.25 32.41 19.58 32.41 20C32.41 20.42 32.08 20.75 31.66 20.75L31.64 20.73L31.64 19.27Z" fill="#000000" fill-opacity="0" fill-rule="nonzero"/>
		<path id="path" d="M8.33 20L31.66 20" stroke="#5CA15D" stroke-opacity="1.000000" stroke-width="1.500000" stroke-linejoin="round" stroke-linecap="round"/>
	</g>
</svg>
