<svg width="35.000000" height="35.000000" viewBox="0 0 35 35" fill="none" xmlns="http://www.w3.org/2000/svg" xmlns:xlink="http://www.w3.org/1999/xlink">
	<desc>
			Created with Pixso.
	</desc>
	<defs>
		<clipPath id="clip17_2062">
			<rect id="Удалить" width="35.000000" height="35.000004" fill="white" fill-opacity="0"/>
		</clipPath>
	</defs>
	<g clip-path="url(#clip17_2062)">
		<path id="path" d="M6.56 7.29L6.56 32.08L28.43 32.08L28.43 7.29L6.56 7.29Z" fill="#000000" fill-opacity="0" fill-rule="nonzero"/>
		<path id="path" d="M6.56 32.08L28.43 32.08L28.43 7.29L6.56 7.29L6.56 32.08Z" stroke="#5CA15D" stroke-opacity="1.000000" stroke-width="1.500000" stroke-linejoin="round"/>
		<path id="path" d="M13.85 14.6L13.83 14.58C13.83 14.16 14.16 13.83 14.58 13.83C15 13.83 15.33 14.16 15.33 14.58L15.31 14.6L13.85 14.6ZM15.31 24.04L15.33 24.06C15.33 24.48 15 24.81 14.58 24.81C14.16 24.81 13.83 24.48 13.83 24.06L13.85 24.04L15.31 24.04Z" fill="#000000" fill-opacity="0" fill-rule="nonzero"/>
		<path id="path" d="M14.58 14.58L14.58 24.06" stroke="#5CA15D" stroke-opacity="1.000000" stroke-width="1.500000" stroke-linejoin="round" stroke-linecap="round"/>
		<path id="path" d="M19.68 14.6L19.66 14.58C19.66 14.16 19.99 13.83 20.41 13.83C20.83 13.83 21.16 14.16 21.16 14.58L21.14 14.6L19.68 14.6ZM21.14 24.04L21.16 24.06C21.16 24.48 20.83 24.81 20.41 24.81C19.99 24.81 19.66 24.48 19.66 24.06L19.68 24.04L21.14 24.04Z" fill="#000000" fill-opacity="0" fill-rule="nonzero"/>
		<path id="path" d="M20.41 14.58L20.41 24.06" stroke="#5CA15D" stroke-opacity="1.000000" stroke-width="1.500000" stroke-linejoin="round" stroke-linecap="round"/>
		<path id="path" d="M2.93 8.02L2.91 8.04C2.49 8.04 2.16 7.71 2.16 7.29C2.16 6.87 2.49 6.54 2.91 6.54L2.93 6.56L2.93 8.02ZM32.06 6.56L32.08 6.54C32.5 6.54 32.83 6.87 32.83 7.29C32.83 7.71 32.5 8.04 32.08 8.04L32.06 8.02L32.06 6.56Z" fill="#000000" fill-opacity="0" fill-rule="nonzero"/>
		<path id="path" d="M2.91 7.29L32.08 7.29" stroke="#5CA15D" stroke-opacity="1.000000" stroke-width="1.500000" stroke-linejoin="round" stroke-linecap="round"/>
		<path id="path" d="M11.66 7.29L14.06 2.91L20.98 2.91L23.33 7.29L11.66 7.29Z" fill="#000000" fill-opacity="0" fill-rule="nonzero"/>
		<path id="path" d="M14.06 2.91L20.98 2.91L23.33 7.29L11.66 7.29L14.06 2.91Z" stroke="#5CA15D" stroke-opacity="1.000000" stroke-width="1.500000" stroke-linejoin="round"/>
	</g>
</svg>
