<svg width="24.000000" height="24.000000" viewBox="0 0 24 24" fill="none" xmlns="http://www.w3.org/2000/svg" xmlns:xlink="http://www.w3.org/1999/xlink">
	<desc>
			Created with Pixso.
	</desc>
	<defs>
		<clipPath id="clip2_108">
			<rect id="Shopping card" width="24.000000" height="24.000000" fill="white" fill-opacity="0"/>
		</clipPath>
	</defs>
	<g clip-path="url(#clip2_108)">
		<circle id="circle" cx="10.250000" cy="20.750000" r="1.750000" fill="#5CA15D" fill-opacity="1.000000"/>
		<circle id="circle" cx="18.750000" cy="20.750000" r="1.750000" fill="#5CA15D" fill-opacity="1.000000"/>
		<path id="path" d="M2.11 3.61L2.08 3.62C1.73 3.39 1.64 2.93 1.87 2.58C2.1 2.23 2.56 2.14 2.91 2.37L2.92 2.4L2.11 3.61ZM12.52 9.22L12.5 9.25C12.08 9.25 11.75 8.91 11.75 8.5C11.75 8.08 12.08 7.75 12.5 7.75L12.52 7.77L12.52 9.22Z" fill="#000000" fill-opacity="0" fill-rule="nonzero"/>
		<path id="path" d="M2.5 3L7 6L9.5 17L19.5 17L22 8.5L12.5 8.5" stroke="#5CA15D" stroke-opacity="1.000000" stroke-width="1.500000" stroke-linejoin="round" stroke-linecap="round"/>
		<path id="path" d="M12.52 13.73L12.5 13.75C12.08 13.75 11.75 13.42 11.75 13C11.75 12.58 12.08 12.25 12.5 12.25L12.52 12.27L12.52 13.73ZM20.48 12.27L20.5 12.25C20.91 12.25 21.25 12.58 21.25 13C21.25 13.42 20.91 13.75 20.5 13.75L20.48 13.73L20.48 12.27Z" fill="#000000" fill-opacity="0" fill-rule="nonzero"/>
		<path id="path" d="M12.5 13L16.13 13L20.5 13" stroke="#5CA15D" stroke-opacity="1.000000" stroke-width="1.500000" stroke-linejoin="round" stroke-linecap="round"/>
	</g>
</svg>
